<?xml version="1.0" encoding="UTF-8"?>
<svg id="_图层_2" data-name="图层 2" xmlns="http://www.w3.org/2000/svg" viewBox="0 0 250.64 534.95">
  <defs>
    <style>
      .cls-1 {
        stroke: #2d2c2b;
        stroke-miterlimit: 10.43;
        stroke-width: .22px;
      }

      .cls-1, .cls-2, .cls-3, .cls-4 {
        fill-rule: evenodd;
      }

      .cls-1, .cls-4 {
        fill: #006da5;
      }

      .cls-2 {
        fill: #e31c2a;
      }

      .cls-2, .cls-3, .cls-4 {
        stroke-width: 0px;
      }

      .cls-3 {
        fill: #eceded;
      }
    </style>
  </defs>
  <g id="_图层_1-2" data-name="图层 1">
    <g id="g26">
      <g id="g24">
        <path id="path4" class="cls-3" d="M244.51,236.69L142.01,11.68c-8.19-15.73-26.43-15.41-33.45,0L6.06,236.69c-8.1,16.42-7.64,44.85-1.25,58.87l29.22,64.15c-6.28,4.67-12.49,9.68-18.62,15.03,18.03,17.97,24.42,38.7,29.38,63.37,5.25-6.41,10.95-12.22,17-17.45,15.58,34.21,31.18,68.41,46.76,102.62,7.02,15.41,25.26,15.73,33.45,0,15.58-34.21,31.18-68.41,46.76-102.61,6.06,5.22,11.75,11.03,16.99,17.44,4.96-24.66,11.35-45.4,29.38-63.37-6.12-5.34-12.33-10.35-18.61-15.02l29.22-64.14c7.08-18.25,6.32-42.28-1.24-58.87Z"/>
        <g id="g14">
          <path id="path6" class="cls-1" d="M84.55,366.1l6.92-1.67c.35,1.65.33,3.19-.04,4.62-.37,1.43-1.09,2.74-2.14,3.91-1.05,1.18-2.58,2.3-4.6,3.36-2.45,1.29-4.61,2.05-6.48,2.27-1.87.22-3.77-.12-5.69-1.04-1.92-.92-3.5-2.54-4.74-4.89-1.65-3.13-1.93-6.07-.83-8.79,1.1-2.73,3.46-5.05,7.09-6.96,2.84-1.5,5.32-2.19,7.46-2.09,2.14.11,4.12.95,5.96,2.53l-5.55,4.39c-.52-.46-.97-.77-1.35-.91-.62-.24-1.28-.33-1.97-.28-.69.06-1.39.27-2.09.64-1.58.83-2.51,2-2.78,3.51-.22,1.13.12,2.54,1.01,4.24,1.11,2.1,2.25,3.34,3.41,3.72,1.17.38,2.44.2,3.81-.52,1.33-.7,2.18-1.55,2.53-2.54.35-.99.37-2.16.04-3.52Z"/>
          <path id="path8" class="cls-1" d="M98.1,371l-3.46-20.61,12.82-2.15c2.38-.4,4.22-.54,5.53-.41,1.31.12,2.43.58,3.36,1.36.92.78,1.49,1.83,1.71,3.14.19,1.15.06,2.18-.38,3.11-.45.93-1.15,1.74-2.09,2.43-.61.44-1.46.86-2.56,1.26.96.1,1.67.24,2.13.43.31.12.78.41,1.41.87.63.46,1.03.86,1.29,1.1l5.61,5.13-7.14,1.24-7.05-5.39c-.78-.59-1.76-.96-2.22-1.13-.6-.23-1.26-.28-1.96-.16l-.68.11,1.41,8.36-7.72,1.3ZM103.76,357.44l3.24-.55c.35-.06,1.01-.26,1.99-.62.5-.17.88-.46,1.14-.86.26-.4.36-.82.28-1.28-.11-.67-.45-1.13-1.02-1.4-.57-.27-1.56-.29-2.96-.06l-3.38.57.7,4.19Z"/>
          <path id="path10" class="cls-1" d="M146.91,365.28l-10.96-1.62-2.62,3.82-7.18-.48,14.49-19.57,6.1.88,8.26,22.92-6.84-1.57-1.25-4.38ZM145.53,360.97l-2.85-7.45-4.46,6.38,7.31,1.07Z"/>
          <path id="path12" class="cls-1" d="M176.12,370.49l5.75,4.2c-1.03,1.33-2.22,2.32-3.55,2.96-1.33.64-2.79.94-4.37.9-1.58-.03-3.43-.48-5.54-1.33-2.57-1.03-4.55-2.19-5.92-3.47-1.38-1.28-2.34-2.95-2.89-5.01-.54-2.05-.33-4.31.66-6.78,1.32-3.29,3.38-5.4,6.17-6.32,2.79-.93,6.09-.63,9.9.9,2.98,1.2,5.12,2.64,6.42,4.34,1.3,1.7,1.94,3.76,1.93,6.18l-6.94-1.39c.02-.7-.04-1.23-.18-1.62-.22-.63-.58-1.19-1.06-1.68-.49-.49-1.1-.88-1.84-1.18-1.65-.66-3.15-.62-4.48.15-1,.56-1.86,1.73-2.57,3.51-.89,2.2-1.09,3.87-.62,5.01.47,1.14,1.42,1.99,2.86,2.57,1.4.56,2.59.66,3.57.29.98-.37,1.88-1.12,2.71-2.24Z"/>
        </g>
        <path id="path16" class="cls-2" d="M99.7,284.7c-6.02.73-13.8,2.84-17.84,7-1.89,1.95-1.12,5.58,3.61,6.59,4.59.98,64.5-2.83,83.03-21.96,6.63-6.85-11.9-5.92-15.19-3.49,6.09-.37,11.52.15,7.45,4.54-10.08,10.88-53.43,17.06-64.62,15.27-7.92-1.27-.91-5.89,3.57-7.95Z"/>
        <path id="path18" class="cls-4" d="M178.31,293.37h24.06v-54.8h-24.06v54.8ZM202.37,232.2v-3.5h7.56v74.97h-7.56v-3.94h-24.06v3.94h-7.56v-74.97h7.56v3.5h24.06ZM194.25,267.17h4.51l2.75,10.57h-5.11l-2.16-8.29v10.79h6.84v6.37h-21.41v-6.37h7.01v-16.56h-7.01v-6.37h7.01v-6.44h-7.01v-6.37h21.41v6.37h-6.84v6.44h6.84v6.37h-6.84v3.49Z"/>
        <path id="path20" class="cls-4" d="M46.84,279.04h8.25v-30.18h-8.25v30.18ZM46.84,242.49h8.25v-13.75h7.56v13.75h8.35v-2.71h7.56v49.29h-7.56v-3.66h-8.35v18.29h-7.56v-18.29h-8.25v3.66h-7.56v-49.29h7.56v2.71ZM62.66,248.86v30.18h8.35v-30.18h-8.35Z"/>
        <path id="path22" class="cls-4" d="M229.91,240.47L139.96,43.01c-7.19-13.81-23.19-13.53-29.35,0L20.67,240.46c-7.1,14.41-6.7,39.35-1.09,51.66l31.01,68.07c-1.49.98-2.97,1.99-4.44,3.03.41.93.82,1.86,1.23,2.8-4.72,3.37-9.36,7.05-13.93,11.03,10.88,10.84,14.74,23.35,17.73,38.23,5.11-6.25,10.93-11.55,17.24-15.95l42.2,92.64c6.16,13.52,22.17,13.8,29.35,0l42.2-92.64s0,0,0,0c6.77,4.59,12.75,10.06,17.59,16.35,2.72-14.34,6.99-27.52,17.41-38.39-4.54-4.08-9.15-7.83-13.82-11.24.37-.88.75-1.75,1.12-2.63-1.49-1.08-3-2.12-4.51-3.13l31.04-68.15c6.22-16.01,5.54-37.1-1.09-51.66ZM60.45,354.22l-28.23-61.96c-6.36-15.68-6.1-36.12,1.06-51.86L100.19,93.53l21,32.98v23.07c0,1.14-.58,1.71-1.53,2-8.71,2.64-14.94,9.97-14.94,18.47,0,4.3,1.6,8.28,4.3,11.52-2.7,3.24-4.3,7.22-4.3,11.51s1.6,8.28,4.3,11.51c-2.7,3.24-4.3,7.22-4.3,11.51,0,8.6,6.39,15.93,15.23,18.56.79.22,1.25.56,1.25,1.45v11.38c-20.22,2.03-36.19,18.84-36.88,39.42,2.06-.96,4.23-1.78,6.35-2.43,1.91-17.41,16.74-31.02,34.64-31.02,12.28,0,23.11,6.41,29.32,16.05,1.93-.59,4.17-.99,6.47-1.2-6.43-11.44-18.18-19.52-31.87-20.83v-14.88c0-2.43-1.76-3.91-4.07-4.15-6.92-.85-12.28-6.07-12.28-12.35,0-2.4.79-4.65,2.14-6.56,3.5,1.98,7.66,3.13,12.13,3.13s8.63-1.15,12.13-3.13c6.04-3.01,5.12-7.35,0-9.92-3.5-1.98-7.66-3.13-12.13-3.13s-8.63,1.15-12.13,3.13c-1.36-1.91-2.14-4.15-2.14-6.56s.79-4.65,2.14-6.56c3.5,1.98,7.66,3.13,12.13,3.13s8.63-1.15,12.13-3.13c5.8-3.05,5.53-7.06,0-9.91-3.5-1.98-7.66-3.13-12.13-3.13s-8.63,1.15-12.13,3.13c-1.36-1.91-2.14-4.16-2.14-6.56,0-6.33,5.48-11.33,12.46-12.37,1.58-.24,3.89-1.61,3.89-4.59v-26.78l21.04-33.05,67.1,147.31c7.86,16.79,7.48,37.44,1.04,51.57l-28.28,62.09c-19.43-10.92-40.12-16.65-60.9-17.26v-7.83c20.76-1.99,37.09-19.56,37.09-40.82,0-2.17-.17-4.3-.5-6.39-1.83,1.08-3.77,2.1-5.82,3.07.1,1.09.16,2.2.16,3.32,0,19.19-15.65,34.85-34.85,34.85-10.98,0-20.8-5.13-27.2-13.11,2.68-4.05,5.5-7.89,8.45-11.5-1.65.21-3.25.4-4.81.57-1.53,3.23-2.87,6.74-3.93,10.56-2.27-2.91-4.08-6.18-5.34-9.71-2.4.18-4.55.3-6.37.36,4.77,15.49,18.51,27.12,35.1,28.78v7.86c-20.67.71-41.3,6.47-60.73,17.23h0ZM102.39,88.7l18.48-40.56c2.37-5.21,6.26-5.21,8.85,0l18.48,40.56h-23.05s0,0,0,0h-22.75ZM173.84,389.77c-13.43-8.43-28.95-12.79-44.62-13.45v36.33h28.86l-4.2,9.23h-57.35l-4.2-9.23h28.87v-36.33c-15.44.65-30.84,5.04-44.64,13.25l44.31,97.27c2.37,5.21,6.26,5.22,8.85,0l44.2-97.02-.07-.04ZM76.26,389.75c-.07.04-.13.08-.2.12.07-.04.13-.08.2-.12ZM94.62,277.77c15.3-1.12,31.28-3.04,45.51-6.31-9.63,4.57-18.31,10.95-26.13,18.83-2.9.31-5.47.43-7.49.32,2.8-4.3,5.81-8,8.65-11.22-7.52-.04-13.83-.63-20.54-1.61ZM103.35,311.07c2.05-4.46,4.06-8.82,6.49-12.94,2.91-.4,5.92-.86,9-1.39,1.63,3.96,5.82,6.61,11.1,5.73,10.24-1.7,15.16-6.39,16.77-12.33,2.7-.87,5.34-1.8,7.86-2.8-.46,11.97-9.01,23.72-24.77,23.72h-26.45ZM115.56,290.11c1.9-2.18,4.06-4.24,6.59-6.16-1.81,1.84-2.95,3.81-3.55,5.75-1.04.15-2.05.29-3.03.41ZM147.2,282.8c-.25-2.62-.9-5.34-1.82-8.04-3.29-9.68-17.37-11.65-28.35-10.95,21.86-5.45,33.78,4.27,36.78,16.27-1.73.88-4,1.8-6.62,2.71ZM110.33,262.06c2.14,0,3.89,1.75,3.89,3.89s-1.75,3.89-3.89,3.89-3.89-1.75-3.89-3.89,1.75-3.89,3.89-3.89ZM201.04,371.45c-3.83,8.98-7.66,17.96-11.48,26.95,2.36,1.94,4.6,4.02,6.7,6.23,3.23-11.7,6.05-18.05,12.74-26.48-2.56-2.38-5.22-4.61-7.96-6.69ZM61.56,397.82c-3.85-8.75-8.01-17.92-11.99-26.85-2.89,1.96-5.68,4.04-8.35,6.23,8.3,9.96,9.63,14.97,13.12,26.85,2.3-2.21,4.71-4.29,7.23-6.22ZM53.01,365.31c45.57-30.05,98.22-29.77,144.59-.02-4.6,10.8-6.71,15.06-11.31,25.87-33.47-25.03-84.81-29.16-121.64,0-4.66-10.62-6.97-15.23-11.64-25.85ZM109.21,449.79h31.98l-4.2,9.23h-23.58l-4.2-9.23ZM100.73,431.13h48.95l-4.2,9.23h-40.56l-4.2-9.23ZM121.19,115.55v-20.38h-12.98l12.98,20.38ZM129.22,95.17v20.17l12.84-20.17h-12.84ZM132.61,181.57c-1.69-.62-3.54-.96-5.48-.96s-3.79.34-5.48.96c1.69.62,3.54.96,5.48.96s3.79-.34,5.48-.96ZM132.61,204.6c-1.69.62-3.54.96-5.48.96s-3.79-.34-5.48-.96c1.69-.62,3.54-.96,5.48-.96s3.79.34,5.48.96Z"/>
      </g>
    </g>
  </g>
</svg>