<svg version="1.1" id="图层_1" xmlns="http://www.w3.org/2000/svg" xmlns:xlink="http://www.w3.org/1999/xlink" x="0px" y="0px"
	 viewBox="0 0 120.7 8.8" style="enable-background:new 0 0 120.7 8.8;" xml:space="preserve">
<path d="M1.3,5.7h116.6c0.7,0,1.3-0.6,1.3-1.3v0c0-0.7-0.6-1.3-1.3-1.3H1.3C0.6,3.1,0,3.7,0,4.4v0C0,5.1,0.6,5.7,1.3,5.7z" fill="currentColor"/>
<path d="M113.8,0.7v7.4c0,0.6,0.6,0.9,1.1,0.6l5.6-3.7c0.3-0.2,0.4-0.6,0.2-1c-0.1-0.1-0.1-0.2-0.2-0.2l-5.6-3.7
	c-0.3-0.2-0.7-0.1-0.9,0.2C113.8,0.4,113.8,0.6,113.8,0.7" fill="currentColor"/>
</svg>
